<?xml version="1.0" standalone="no"?>
<!DOCTYPE svg PUBLIC "-//W3C//DTD SVG 20010904//EN"
 "http://www.w3.org/TR/2001/REC-SVG-20010904/DTD/svg10.dtd">
<svg version="1.0" xmlns="http://www.w3.org/2000/svg"
 width="4000.000000pt" height="1887.000000pt" viewBox="0 0 4000.000000 1887.000000"
 preserveAspectRatio="xMidYMid meet">
<metadata>
Created by potrace 1.16, written by Peter Selinger 2001-2019
</metadata>
<g transform="translate(0.000000,1887.000000) scale(0.100000,-0.100000)"
fill="#000000" stroke="none">
<path d="M21996 18817 c-162 -161 -390 -535 -654 -1069 l-137 -278 -35 0 c-19
0 -289 18 -599 39 -320 22 -571 35 -580 31 -9 -5 -266 -25 -571 -44 -305 -20
-570 -38 -588 -41 l-34 -4 -97 202 c-289 599 -561 1039 -729 1179 -51 43 -91
17 -141 -92 -96 -207 -191 -746 -271 -1535 -27 -265 -28 -322 -11 -635 41
-742 -90 -1577 -356 -2254 -19 -50 -71 -163 -114 -251 -375 -770 -873 -1317
-1453 -1599 -589 -286 -1246 -332 -2006 -141 -671 169 -1437 549 -2089 1036
-130 96 -177 150 -283 322 -360 580 -434 1251 -218 1979 222 749 772 1595
1507 2320 156 154 159 157 146 182 -16 31 -17 31 -112 5 -1607 -444 -3151
-960 -4491 -1502 -3256 -1316 -5597 -2884 -6900 -4622 -660 -881 -1040 -1776
-1134 -2675 -9 -85 -22 -191 -27 -235 -18 -130 -23 -495 -10 -665 46 -602 199
-1196 465 -1805 78 -177 275 -560 376 -730 572 -962 1386 -1855 2441 -2677
1424 -1109 3262 -2076 5509 -2898 351 -129 1025 -360 1047 -360 8 0 33 42 33
55 0 2 -48 55 -107 117 -662 700 -1302 1590 -1694 2353 -322 628 -491 1140
-560 1700 -21 164 -16 505 10 670 61 404 212 755 459 1069 71 91 339 358 419
418 108 80 297 146 539 189 112 20 163 23 389 23 277 0 392 -11 645 -60 1137
-223 2497 -1005 3912 -2251 l117 -102 47 87 c351 644 798 1158 1171 1346 132
66 214 88 368 98 77 5 168 11 203 14 115 10 309 -45 472 -134 874 -477 1963
-1998 3126 -4367 159 -325 389 -810 514 -1088 l53 -118 31 7 c39 8 36 4 76 94
83 188 322 695 469 998 1324 2727 2569 4373 3484 4604 63 16 98 19 170 14 51
-3 142 -7 202 -10 186 -7 363 -75 559 -213 99 -71 385 -353 488 -484 168 -210
349 -483 479 -719 33 -60 63 -110 66 -110 3 0 56 45 118 100 63 55 213 183
335 284 1449 1209 2804 1905 3924 2015 162 16 464 14 608 -5 272 -35 513 -117
637 -217 352 -285 619 -657 754 -1052 83 -243 114 -422 124 -700 16 -498 -100
-1025 -365 -1650 -367 -866 -1067 -1894 -1901 -2790 -61 -66 -111 -122 -111
-125 0 -3 8 -15 18 -28 l17 -22 250 84 c1705 573 3181 1218 4455 1946 969 554
1785 1132 2525 1791 326 289 784 767 1060 1104 884 1080 1406 2222 1541 3375
21 180 29 574 16 720 -43 457 -79 698 -144 954 -305 1223 -1134 2431 -2433
3550 -2097 1805 -5426 3367 -9780 4591 -148 41 -277 78 -285 80 -10 3 -22 -6
-33 -24 l-17 -29 118 -110 c270 -253 663 -702 899 -1027 713 -982 989 -1874
809 -2610 -88 -360 -254 -646 -553 -955 -590 -609 -1329 -1110 -1998 -1354
-202 -74 -454 -136 -675 -167 -142 -20 -488 -17 -630 5 -431 67 -805 236
-1170 529 -120 97 -397 381 -514 527 -205 257 -418 596 -600 955 -122 238
-172 356 -246 571 -216 632 -321 1375 -290 2056 6 128 13 253 16 278 9 71 -56
682 -117 1100 -37 253 -99 567 -135 680 -46 148 -104 240 -151 240 -8 0 -38
-24 -67 -53z"/>
</g>
</svg>
