<?xml version="1.0" encoding="utf-8"?>
<!-- Svg Vector Icons : http://www.onlinewebfonts.com/icon -->
<!DOCTYPE svg PUBLIC "-//W3C//DTD SVG 1.1//EN" "http://www.w3.org/Graphics/SVG/1.1/DTD/svg11.dtd">
<svg version="1.1" xmlns="http://www.w3.org/2000/svg" xmlns:xlink="http://www.w3.org/1999/xlink" x="0px" y="0px" viewBox="0 0 256 256" enable-background="new 0 0 256 256" xml:space="preserve">
<metadata> Svg Vector Icons : http://www.onlinewebfonts.com/icon </metadata>
<g><g><path fill="#000000" d="M91.5,10c-0.2,4.1-1.9,7.8-3.1,11.9c-1.1,3.9-2.1,8.1-3.1,12.3c-2.5,10.7-4.8,21.3-4.6,35.2c8.5,1.6,19.2,0.4,26.8-1.2c4.2,2.7,6.9,6.9,10.7,9.9c-0.7-5.2,2.7-6.2,5.7-7.7c-1.3,2.2-3.4,3.8-2.7,8c1.7,1.2,2-1.9,3.4-2.3c2,2.2,4.5,2.1,6.5,0c1.5,0.3,1.1,2.5,2.7,2.7c2.3-3-1-6.2-1.9-8.4c2.8,1.5,6.1,2.6,5.7,7.3c3.1-1.9,6.9-6.4,9.9-9.6c8,1.7,18.2,2.5,27.6,1.5c-0.3-23.3-6-41.2-11.5-59.3c1.5-0.2,1.5,1.8,1.9,2.7c5.7,12.3,10.8,26.4,14.9,41.3c0.6,2.2,1.6,5.1,2.3,8c0.6,2.6,1.8,7,1.5,8.4c-0.7,3.1-5.8,4.2-6.9,6.9c-3.2-3.8-12.4-2.7-21.1-3.1c-2.5-0.1-5.8-0.8-7.3-0.4c-3.3,1-4.8,5.8-6.5,8.4c4.7,0.3,8.4-4.2,12.6-4.6c2.7-0.2,6.6,1.8,10,2.7c9.9,2.6,20.9,4.8,29.8,7.7c0.5-30.8-7.4-56.4-18-77.3c10.6,14.5,17.7,31.6,23,51.6c0.9,3.5,1.7,6.8,2.3,10.3c0.8,5,0.9,11.2,3.4,14.9c-3.2,3.5-7,6.3-10.3,9.6c-9.4-5.6-27.6-13.7-42.9-12.2c-3.7,0.3-6.9,2.2-9.6,4.6c4.7,1.9,7.9,2,14.2,1.9c1.6,0,3.8-0.7,5-0.4c1.3,0.3,3.5,3.1,5.3,5c11.1,11.1,20.9,19.2,34.1,27.9c4.1,2.7,6.4,5.5,11.1,1.9c0.8,36.3-8.9,63.1-20.7,87.6c-1.4,2.9-2.2,6.2-4.6,8.4c8.9-20.9,15.7-45.8,15.7-75c0-3.1,0.6-6.9,0-9.6c-0.8-3.8-6.8-7.9-10.3-11.1c-9.9-9.1-17.8-15.5-28.7-24.1c-2.1-1.7-4-4-5.7-4.6c-1.9-0.7-4.8-0.8-6.9-1.2c-2.6-0.4-5.1-0.5-7.3-0.8c4.2,4.6,10.9,10.2,16.8,14.5c1.1,1,2.2-0.3,3.4-0.4c1.4,42.7-1.8,84.4-13.8,115.6c-2.9,7.4-6,14.7-11.1,20.3c16.3-29.5,17.5-80,14.2-124.3c3.5-3,2-5.5-1.2-9.2c-3.4-4-9.4-9.9-13.4-11.9c-0.3,2,0.4,4,1.2,5.7c0.7,1.8,2.4,3.3,2.7,5c0.6,3.4-0.8,10.9-1.5,14.9c-2.4,13.2-7.3,27.7-11.9,37.5c-1.6-0.2-0.5-3.1-1.5-3.8c-1.7,0.1-0.7,2.9-1.5,3.8c-5.3-9-9.8-23.9-12.2-37.5c-0.9-4.9-2.3-10.7-1.5-14.9c0.6-3.3,4.2-6.3,3.8-10.3c-3.5,0.8-6.8,4.3-9.6,7.3c-2.8,3-5.7,6.2-7.7,9.6c0.2,1.7,1.9,2,2.3,3.4c-2.5,44.9-2.4,95.3,14.5,124.3c-1.8-0.2-2.6-2.5-3.4-3.8c-15.8-25.3-20-64.2-21.8-104.4c-0.4-8.9-0.8-17.6,0.4-26.4c0.3-1.9,2.3,0.9,3.4-0.4c6-4.6,11.5-9.7,17.2-14.5c-5,0.8-10.4,0.5-14.9,2.3c-3.9,1.5-8.2,5.8-11.9,8.8c-11.2,9.2-23.1,19.1-32.5,29.5c-1.9,34.1,5.9,61.6,15.3,85.7c-13.6-26.5-26.2-55.9-24.9-96c5.2,4.9,13.1-3.1,17.2-6.1c11.6-8.5,23.9-19.4,32.9-28.7c6.5,1,14.1,0.2,19.5-1.2c-6.8-8.6-24.1-4.3-34.4-1.2c-6.9,2.1-13.4,5.2-17.6,8.4c-4-2.6-7-6.3-10.7-9.2c2.7-6.8,3.3-18.2,5.3-26c5.1-19,12.9-35.8,22.6-51.3c-0.3,2.9-2.3,5.5-3.4,8C66.2,37.7,60.7,60.9,60.4,88c8.8-2,19.4-4.5,29.8-7.3c3.4-0.9,6.9-2.8,9.6-2.7c4.3,0.1,8.3,4.6,13,4.6c-1.1-3.6-3.3-6.1-5.7-8.4c-7.9,0.9-16.7-0.5-23.7,0.8c-0.7,0.1-1.7,0.6-2.7,1.2c0.1,0-2.3,1.5-1.9,1.5c-1.6,0-5.5-5.5-7.3-6.1C75.3,48.1,83.6,29.2,91.5,10z"/></g></g>
</svg>